<mxfile host="app.diagrams.net" modified="2021-12-29T16:49:56.575Z" agent="5.0 (Windows NT 10.0; Win64; x64) AppleWebKit/537.36 (KHTML, like Gecko) Chrome/96.0.4664.110 Safari/537.36" etag="WrgCarlYKFex7--zyzTn" version="16.1.0" type="github" pages="4">
  <diagram id="C5RBs43oDa-KdzZeNtuy" name="Page-1">
    <mxGraphModel dx="1038" dy="579" grid="1" gridSize="10" guides="1" tooltips="1" connect="1" arrows="1" fold="1" page="1" pageScale="1" pageWidth="827" pageHeight="1169" math="0" shadow="0">
      <root>
        <mxCell id="WIyWlLk6GJQsqaUBKTNV-0" />
        <mxCell id="WIyWlLk6GJQsqaUBKTNV-1" parent="WIyWlLk6GJQsqaUBKTNV-0" />
        <mxCell id="aRHWvMybmiUx6WjFG1LS-0" value="" style="html=1;fillColor=#fff2cc;strokeColor=#d6b656;" parent="WIyWlLk6GJQsqaUBKTNV-1" vertex="1">
          <mxGeometry x="120" y="180" width="580" height="340" as="geometry" />
        </mxCell>
        <mxCell id="aRHWvMybmiUx6WjFG1LS-1" value="결제" style="ellipse;whiteSpace=wrap;html=1;fillColor=#fff2cc;strokeColor=#d6b656;" parent="WIyWlLk6GJQsqaUBKTNV-1" vertex="1">
          <mxGeometry x="200" y="295" width="110" height="50" as="geometry" />
        </mxCell>
        <mxCell id="aRHWvMybmiUx6WjFG1LS-19" style="edgeStyle=orthogonalEdgeStyle;rounded=0;orthogonalLoop=1;jettySize=auto;html=1;" parent="WIyWlLk6GJQsqaUBKTNV-1" source="aRHWvMybmiUx6WjFG1LS-2" target="aRHWvMybmiUx6WjFG1LS-1" edge="1">
          <mxGeometry relative="1" as="geometry" />
        </mxCell>
        <mxCell id="aRHWvMybmiUx6WjFG1LS-2" value="고객" style="shape=umlActor;verticalLabelPosition=bottom;verticalAlign=top;html=1;" parent="WIyWlLk6GJQsqaUBKTNV-1" vertex="1">
          <mxGeometry x="40" y="290" width="30" height="60" as="geometry" />
        </mxCell>
        <mxCell id="aRHWvMybmiUx6WjFG1LS-21" value="카드승인시스템" style="shape=umlActor;verticalLabelPosition=bottom;verticalAlign=top;html=1;" parent="WIyWlLk6GJQsqaUBKTNV-1" vertex="1">
          <mxGeometry x="740" y="285" width="30" height="60" as="geometry" />
        </mxCell>
        <mxCell id="aRHWvMybmiUx6WjFG1LS-22" value="신용카드지불" style="ellipse;whiteSpace=wrap;html=1;fillColor=#fff2cc;strokeColor=#d6b656;" parent="WIyWlLk6GJQsqaUBKTNV-1" vertex="1">
          <mxGeometry x="440" y="290" width="120" height="60" as="geometry" />
        </mxCell>
        <mxCell id="aRHWvMybmiUx6WjFG1LS-27" value="" style="html=1;verticalAlign=bottom;endArrow=block;rounded=0;exitX=0.5;exitY=0.5;exitDx=0;exitDy=0;exitPerimeter=0;" parent="WIyWlLk6GJQsqaUBKTNV-1" source="aRHWvMybmiUx6WjFG1LS-21" target="aRHWvMybmiUx6WjFG1LS-22" edge="1">
          <mxGeometry width="80" relative="1" as="geometry">
            <mxPoint x="420" y="400" as="sourcePoint" />
            <mxPoint x="500" y="400" as="targetPoint" />
          </mxGeometry>
        </mxCell>
        <mxCell id="aRHWvMybmiUx6WjFG1LS-31" value="" style="html=1;verticalAlign=bottom;endArrow=open;rounded=0;dashed=1;endFill=0;" parent="WIyWlLk6GJQsqaUBKTNV-1" edge="1">
          <mxGeometry width="80" relative="1" as="geometry">
            <mxPoint x="440" y="322" as="sourcePoint" />
            <mxPoint x="310.0039170438918" y="321.91443299913936" as="targetPoint" />
          </mxGeometry>
        </mxCell>
        <mxCell id="aRHWvMybmiUx6WjFG1LS-32" value="관리자" style="shape=umlActor;verticalLabelPosition=bottom;verticalAlign=top;html=1;" parent="WIyWlLk6GJQsqaUBKTNV-1" vertex="1">
          <mxGeometry x="40" y="440" width="30" height="60" as="geometry" />
        </mxCell>
        <mxCell id="aRHWvMybmiUx6WjFG1LS-42" value="매출정산" style="ellipse;whiteSpace=wrap;html=1;fillColor=#fff2cc;strokeColor=#d6b656;" parent="WIyWlLk6GJQsqaUBKTNV-1" vertex="1">
          <mxGeometry x="200" y="440" width="110" height="50" as="geometry" />
        </mxCell>
        <mxCell id="aRHWvMybmiUx6WjFG1LS-43" style="edgeStyle=orthogonalEdgeStyle;rounded=0;orthogonalLoop=1;jettySize=auto;html=1;" parent="WIyWlLk6GJQsqaUBKTNV-1" edge="1">
          <mxGeometry relative="1" as="geometry">
            <mxPoint x="70" y="469.5" as="sourcePoint" />
            <mxPoint x="200" y="469.5" as="targetPoint" />
          </mxGeometry>
        </mxCell>
      </root>
    </mxGraphModel>
  </diagram>
  <diagram id="rPwC5HnoijPhUJ-sqOVX" name="Page-2">
    <mxGraphModel dx="1038" dy="579" grid="1" gridSize="10" guides="1" tooltips="1" connect="1" arrows="1" fold="1" page="1" pageScale="1" pageWidth="827" pageHeight="1169" math="0" shadow="0">
      <root>
        <mxCell id="RXNHcIEkR1fMh7HQQXb3-0" />
        <mxCell id="RXNHcIEkR1fMh7HQQXb3-1" parent="RXNHcIEkR1fMh7HQQXb3-0" />
      </root>
    </mxGraphModel>
  </diagram>
  <diagram name="Page-1" id="UiIGnHidZXM71j15FvYv">
    <mxGraphModel dx="1038" dy="579" grid="1" gridSize="10" guides="1" tooltips="1" connect="1" arrows="1" fold="1" page="1" pageScale="1" pageWidth="827" pageHeight="1169" math="0" shadow="0">
      <root>
        <mxCell id="WIyWlLk6GJQsqaUBKTNV-0" />
        <mxCell id="WIyWlLk6GJQsqaUBKTNV-1" parent="WIyWlLk6GJQsqaUBKTNV-0" />
        <mxCell id="aRHWvMybmiUx6WjFG1LS-0" value="" style="html=1;fillColor=#fff2cc;strokeColor=#d6b656;" vertex="1" parent="WIyWlLk6GJQsqaUBKTNV-1">
          <mxGeometry x="120" y="180" width="580" height="340" as="geometry" />
        </mxCell>
        <mxCell id="aRHWvMybmiUx6WjFG1LS-1" value="결제" style="ellipse;whiteSpace=wrap;html=1;fillColor=#fff2cc;strokeColor=#d6b656;" vertex="1" parent="WIyWlLk6GJQsqaUBKTNV-1">
          <mxGeometry x="200" y="295" width="110" height="50" as="geometry" />
        </mxCell>
        <mxCell id="aRHWvMybmiUx6WjFG1LS-19" style="edgeStyle=orthogonalEdgeStyle;rounded=0;orthogonalLoop=1;jettySize=auto;html=1;" edge="1" parent="WIyWlLk6GJQsqaUBKTNV-1" source="aRHWvMybmiUx6WjFG1LS-2" target="aRHWvMybmiUx6WjFG1LS-1">
          <mxGeometry relative="1" as="geometry" />
        </mxCell>
        <mxCell id="aRHWvMybmiUx6WjFG1LS-2" value="고객" style="shape=umlActor;verticalLabelPosition=bottom;verticalAlign=top;html=1;" vertex="1" parent="WIyWlLk6GJQsqaUBKTNV-1">
          <mxGeometry x="40" y="290" width="30" height="60" as="geometry" />
        </mxCell>
        <mxCell id="aRHWvMybmiUx6WjFG1LS-21" value="카드승인시스템" style="shape=umlActor;verticalLabelPosition=bottom;verticalAlign=top;html=1;" vertex="1" parent="WIyWlLk6GJQsqaUBKTNV-1">
          <mxGeometry x="740" y="285" width="30" height="60" as="geometry" />
        </mxCell>
        <mxCell id="aRHWvMybmiUx6WjFG1LS-22" value="신용카드지불" style="ellipse;whiteSpace=wrap;html=1;fillColor=#fff2cc;strokeColor=#d6b656;" vertex="1" parent="WIyWlLk6GJQsqaUBKTNV-1">
          <mxGeometry x="440" y="290" width="120" height="60" as="geometry" />
        </mxCell>
        <mxCell id="aRHWvMybmiUx6WjFG1LS-27" value="" style="html=1;verticalAlign=bottom;endArrow=block;rounded=0;exitX=0.5;exitY=0.5;exitDx=0;exitDy=0;exitPerimeter=0;" edge="1" parent="WIyWlLk6GJQsqaUBKTNV-1" source="aRHWvMybmiUx6WjFG1LS-21" target="aRHWvMybmiUx6WjFG1LS-22">
          <mxGeometry width="80" relative="1" as="geometry">
            <mxPoint x="420" y="400" as="sourcePoint" />
            <mxPoint x="500" y="400" as="targetPoint" />
          </mxGeometry>
        </mxCell>
        <mxCell id="aRHWvMybmiUx6WjFG1LS-31" value="" style="html=1;verticalAlign=bottom;endArrow=open;rounded=0;dashed=1;endFill=0;" edge="1" parent="WIyWlLk6GJQsqaUBKTNV-1">
          <mxGeometry width="80" relative="1" as="geometry">
            <mxPoint x="440" y="322" as="sourcePoint" />
            <mxPoint x="310.0039170438918" y="321.91443299913936" as="targetPoint" />
          </mxGeometry>
        </mxCell>
        <mxCell id="aRHWvMybmiUx6WjFG1LS-32" value="관리자" style="shape=umlActor;verticalLabelPosition=bottom;verticalAlign=top;html=1;" vertex="1" parent="WIyWlLk6GJQsqaUBKTNV-1">
          <mxGeometry x="40" y="440" width="30" height="60" as="geometry" />
        </mxCell>
        <mxCell id="aRHWvMybmiUx6WjFG1LS-42" value="매출정산" style="ellipse;whiteSpace=wrap;html=1;fillColor=#fff2cc;strokeColor=#d6b656;" vertex="1" parent="WIyWlLk6GJQsqaUBKTNV-1">
          <mxGeometry x="200" y="440" width="110" height="50" as="geometry" />
        </mxCell>
        <mxCell id="aRHWvMybmiUx6WjFG1LS-43" style="edgeStyle=orthogonalEdgeStyle;rounded=0;orthogonalLoop=1;jettySize=auto;html=1;" edge="1" parent="WIyWlLk6GJQsqaUBKTNV-1">
          <mxGeometry relative="1" as="geometry">
            <mxPoint x="70" y="469.5" as="sourcePoint" />
            <mxPoint x="200" y="469.5" as="targetPoint" />
          </mxGeometry>
        </mxCell>
      </root>
    </mxGraphModel>
  </diagram>
  <diagram name="Page-2" id="gGyI3emuTOtrzRmbdy4l">
    <mxGraphModel dx="1038" dy="579" grid="1" gridSize="10" guides="1" tooltips="1" connect="1" arrows="1" fold="1" page="1" pageScale="1" pageWidth="827" pageHeight="1169" math="0" shadow="0">
      <root>
        <mxCell id="RXNHcIEkR1fMh7HQQXb3-0" />
        <mxCell id="RXNHcIEkR1fMh7HQQXb3-1" parent="RXNHcIEkR1fMh7HQQXb3-0" />
      </root>
    </mxGraphModel>
  </diagram>
</mxfile>
